<svg width="24" height="24" viewBox="0 0 24 24" fill="none" xmlns="http://www.w3.org/2000/svg">
<path d="M11.0336 13.9664C11.0336 13.4141 10.5859 12.9664 10.0336 12.9664H2.96643C2.43268 12.9664 2 12.5337 2 12C2 11.4663 2.43268 11.0336 2.96643 11.0336H10.0336C10.5859 11.0336 11.0336 10.5859 11.0336 10.0336V2.96643C11.0336 2.43268 11.4663 2 12 2C12.5337 2 12.9664 2.43268 12.9664 2.96643V10.0336C12.9664 10.5859 13.4141 11.0336 13.9664 11.0336H21.0336C21.5673 11.0336 22 11.4663 22 12C22 12.5337 21.5673 12.9664 21.0336 12.9664H13.9664C13.4141 12.9664 12.9664 13.4141 12.9664 13.9664V21.0336C12.9664 21.5673 12.5337 22 12 22C11.4663 22 11.0336 21.5673 11.0336 21.0336V13.9664Z" fill="#808080"/>
</svg>
