<svg width="29" height="29" viewBox="0 0 29 29" fill="none" xmlns="http://www.w3.org/2000/svg">
<path d="M8.71484 14.4366C8.71484 14.7435 8.82881 15.0065 9.07427 15.2345L15.8946 21.9159C16.0875 22.1088 16.333 22.214 16.6223 22.214C17.2008 22.214 17.6655 21.7581 17.6655 21.1706C17.6655 20.8813 17.5427 20.627 17.3499 20.4253L11.2045 14.4366L17.3499 8.4479C17.5427 8.24623 17.6655 7.98318 17.6655 7.7026C17.6655 7.11513 17.2008 6.65918 16.6223 6.65918C16.333 6.65918 16.0875 6.7644 15.8946 6.9573L9.07427 13.6299C8.82881 13.8667 8.71484 14.1297 8.71484 14.4366Z" fill="#1C1C1E"/>
</svg>
