<svg width="21" height="20" viewBox="0 0 21 20" fill="none" xmlns="http://www.w3.org/2000/svg">
<path d="M6.31641 19.4629C6.81738 19.4629 7.18652 19.2168 7.79297 18.6807L10.8076 16.0264H16.0986C18.7441 16.0264 20.2295 14.4971 20.2295 11.8867V5.05762C20.2295 2.44727 18.7441 0.917969 16.0986 0.917969H4.89258C2.25586 0.917969 0.761719 2.44727 0.761719 5.05762V11.8867C0.761719 14.5059 2.2998 16.0264 4.83105 16.0264H5.19141V18.1797C5.19141 18.9619 5.60449 19.4629 6.31641 19.4629ZM6.75586 17.4941V14.9893C6.75586 14.4707 6.52734 14.2686 6.03516 14.2686H4.9541C3.30176 14.2686 2.51074 13.4336 2.51074 11.834V5.11035C2.51074 3.51074 3.30176 2.67578 4.9541 2.67578H16.0459C17.6895 2.67578 18.4805 3.51074 18.4805 5.11035V11.834C18.4805 13.4336 17.6895 14.2686 16.0459 14.2686H10.7109C10.1748 14.2686 9.91113 14.3564 9.54199 14.7432L6.75586 17.4941ZM6.26367 9.78613C6.98438 9.78613 7.56445 9.19727 7.56445 8.46777C7.56445 7.74707 6.98438 7.1582 6.26367 7.1582C5.53418 7.1582 4.94531 7.74707 4.94531 8.46777C4.94531 9.19727 5.53418 9.78613 6.26367 9.78613ZM10.5 9.78613C11.2207 9.78613 11.8096 9.19727 11.8096 8.46777C11.8096 7.74707 11.2207 7.1582 10.5 7.1582C9.7793 7.1582 9.19043 7.74707 9.19043 8.46777C9.19043 9.19727 9.7793 9.78613 10.5 9.78613ZM14.7451 9.78613C15.4658 9.78613 16.0547 9.19727 16.0547 8.46777C16.0547 7.74707 15.4658 7.1582 14.7451 7.1582C14.0244 7.1582 13.4355 7.74707 13.4355 8.46777C13.4355 9.19727 14.0244 9.78613 14.7451 9.78613Z" fill="#FF772A"/>
</svg>
