<svg width="29" height="28" viewBox="0 0 29 28" fill="none" xmlns="http://www.w3.org/2000/svg">
<path d="M10.3164 23.4629C10.8174 23.4629 11.1865 23.2168 11.793 22.6807L14.8076 20.0264H20.0986C22.7441 20.0264 24.2295 18.4971 24.2295 15.8867V9.05762C24.2295 6.44727 22.7441 4.91797 20.0986 4.91797H8.89258C6.25586 4.91797 4.76172 6.44727 4.76172 9.05762V15.8867C4.76172 18.5059 6.2998 20.0264 8.83105 20.0264H9.19141V22.1797C9.19141 22.9619 9.60449 23.4629 10.3164 23.4629ZM10.7559 21.4941V18.9893C10.7559 18.4707 10.5273 18.2686 10.0352 18.2686H8.9541C7.30176 18.2686 6.51074 17.4336 6.51074 15.834V9.11035C6.51074 7.51074 7.30176 6.67578 8.9541 6.67578H20.0459C21.6895 6.67578 22.4805 7.51074 22.4805 9.11035V15.834C22.4805 17.4336 21.6895 18.2686 20.0459 18.2686H14.7109C14.1748 18.2686 13.9111 18.3564 13.542 18.7432L10.7559 21.4941ZM10.2637 13.7861C10.9844 13.7861 11.5645 13.1973 11.5645 12.4678C11.5645 11.7471 10.9844 11.1582 10.2637 11.1582C9.53418 11.1582 8.94531 11.7471 8.94531 12.4678C8.94531 13.1973 9.53418 13.7861 10.2637 13.7861ZM14.5 13.7861C15.2207 13.7861 15.8096 13.1973 15.8096 12.4678C15.8096 11.7471 15.2207 11.1582 14.5 11.1582C13.7793 11.1582 13.1904 11.7471 13.1904 12.4678C13.1904 13.1973 13.7793 13.7861 14.5 13.7861ZM18.7451 13.7861C19.4658 13.7861 20.0547 13.1973 20.0547 12.4678C20.0547 11.7471 19.4658 11.1582 18.7451 11.1582C18.0244 11.1582 17.4355 11.7471 17.4355 12.4678C17.4355 13.1973 18.0244 13.7861 18.7451 13.7861Z" fill="#FF772A"/>
</svg>
