<svg width="30" height="30" viewBox="0 0 30 30" fill="none" xmlns="http://www.w3.org/2000/svg">
<path d="M9.58546 18.0537C9.56492 18.1616 9.55249 18.2717 9.55249 18.3829C9.55249 20.0244 11.8418 21.3546 14.6661 21.3546C17.4904 21.3546 19.7796 20.0238 19.7796 18.3829C19.7796 18.2712 19.7672 18.1616 19.7467 18.0537C18.3859 19.2424 16.6122 19.968 14.6661 19.968C12.72 19.968 10.9457 19.2429 9.58546 18.0537Z" fill="#AFB7C0"/>
<path d="M14.6655 8.09917C11.5148 8.09917 8.88561 9.39415 8.26465 11.1181C9.41415 12.4206 11.8796 13.3474 14.6655 13.3474C17.4515 13.3474 19.9175 12.4206 21.0664 11.1181C21.0313 11.0215 20.9875 10.9266 20.94 10.8323C20.145 9.25315 17.639 8.09863 14.665 8.09863L14.6655 8.09917Z" fill="#6E4944"/>
<path d="M21.7571 9.50617C21.7571 9.69597 21.7193 9.88035 21.6652 10.0647C21.5626 10.4335 21.3572 10.786 21.0654 11.1168C21.0329 11.0191 20.9897 10.927 20.9411 10.8348C20.1466 9.2513 17.639 8.10165 14.6666 8.10165C11.5159 8.10165 8.88402 9.39229 8.26252 11.1168C7.83018 10.6233 7.57617 10.0756 7.57617 9.50617C7.57617 7.4238 10.8242 5.66138 14.6666 5.66138C18.5091 5.66138 21.7571 7.4238 21.7571 9.50617Z" fill="#D0D5DA"/>
<path d="M22.4112 10.0918V9.61462L22.4004 9.64716C22.3842 9.90746 22.3409 10.1623 22.2545 10.4118C22.2058 10.5582 22.141 10.7046 22.0653 10.8456C21.0817 12.6785 18.1418 14.0071 14.6668 14.0071C11.1918 14.0071 8.24646 12.6785 7.26827 10.8456C7.19261 10.7046 7.12776 10.5582 7.07372 10.4118C6.98725 10.1623 6.94401 9.90746 6.9278 9.64716L6.91699 9.61462V12.1959C6.91699 13.0798 7.07372 13.9258 7.34393 14.7229C7.79249 16.0244 8.57072 17.1686 9.58673 18.0526C10.9486 19.2402 12.7212 19.9668 14.6668 19.9668C16.6124 19.9668 18.385 19.2402 19.7469 18.0526C20.4008 17.4777 20.9628 16.7945 21.3952 16.0298H22.0221C22.449 16.0298 22.8543 15.9377 23.2218 15.775C24.2649 15.314 24.9999 14.2674 24.9999 13.0473C24.9999 11.5343 23.8704 10.2871 22.4112 10.0918ZM22.0221 14.7338H21.9788C21.9824 14.7302 21.9843 14.7266 21.9843 14.7229C22.2599 13.9258 22.4112 13.0798 22.4112 12.1959V11.415C23.1516 11.5885 23.7028 12.2555 23.7028 13.0473C23.7028 13.98 22.9516 14.7338 22.0221 14.7338Z" fill="#D0D5DA"/>
<path d="M21.9857 14.7224C21.9841 14.7267 21.9825 14.7305 21.9814 14.7348H22.0056C21.9992 14.7305 21.9916 14.7267 21.9857 14.7224Z" fill="#E5E8EB"/>
<path d="M22.0242 16.032H21.3973C20.9628 16.7972 20.4029 17.4794 19.7452 18.0542C19.7657 18.1627 19.7781 18.2722 19.7781 18.3834C19.7781 20.0249 17.4889 21.3551 14.6646 21.3551C11.8403 21.3551 9.55098 20.0243 9.55098 18.3834C9.55098 18.2717 9.56341 18.1621 9.58395 18.0542C8.57064 17.1687 7.79079 16.025 7.34386 14.7224C5.88631 15.7061 5 16.9832 5 18.3834C5 21.4852 9.3267 24.0003 14.664 24.0003C20.0013 24.0003 24.3286 21.4858 24.3286 18.3834C24.3286 17.442 23.9254 16.5564 23.2212 15.7772C22.8543 15.9398 22.45 16.032 22.0242 16.032Z" fill="#E5E8EB"/>
<path d="M22.3734 9.04544C22.3193 8.74176 22.2166 8.44893 22.0653 8.16694C21.914 7.88495 21.714 7.61381 21.4762 7.35894C21.3573 7.22879 21.2276 7.10948 21.0925 6.98476C20.8115 6.74615 20.4927 6.52382 20.1414 6.32317C18.7417 5.50432 16.8069 5 14.6668 5C12.5267 5 10.5865 5.50432 9.18681 6.32317C8.83553 6.52382 8.52208 6.74615 8.24105 6.98476C8.10054 7.10948 7.97084 7.22879 7.85194 7.35894C7.61415 7.61381 7.41959 7.88495 7.26827 8.16694C7.11695 8.44893 7.00887 8.74176 6.96023 9.04544C6.93321 9.19728 6.91699 9.34912 6.91699 9.50638C6.91699 9.55518 6.9278 9.59857 6.9278 9.64737C6.94401 9.90767 6.98725 10.1625 7.07372 10.412C7.12776 10.5584 7.19261 10.7048 7.26827 10.8458C8.24646 12.6787 11.1864 14.0073 14.6668 14.0073C18.1472 14.0073 21.0817 12.6787 22.0653 10.8458C22.141 10.7048 22.2058 10.5584 22.2545 10.412C22.3409 10.1625 22.3842 9.90767 22.4004 9.64737C22.4058 9.59857 22.4112 9.55518 22.4112 9.50638C22.4112 9.34912 22.4004 9.19728 22.3734 9.04544ZM21.6654 10.0649C21.5627 10.4337 21.3573 10.7862 21.0655 11.117C19.9198 12.4184 17.45 13.3458 14.6668 13.3458C11.8836 13.3458 9.41379 12.4184 8.26267 11.117C7.83032 10.6235 7.57632 10.0758 7.57632 9.50638C7.57632 7.42401 10.8243 5.66159 14.6668 5.66159C18.5093 5.66159 21.7573 7.42401 21.7573 9.50638C21.7573 9.69618 21.7194 9.88056 21.6654 10.0649Z" fill="#E5E8EB"/>
</svg>
