<svg width="52" height="52" viewBox="0 0 52 52" fill="none" xmlns="http://www.w3.org/2000/svg">
<rect width="52" height="52" rx="26" fill="white"/>
<g clip-path="url(#clip0_224_2876)">
<path d="M37.7558 24.9167C37.4633 22.2973 36.2887 19.8553 34.425 17.9916C32.5613 16.128 30.1193 14.9534 27.5 14.6608V12H24.9167V14.6608C22.2973 14.9534 19.8553 16.128 17.9916 17.9916C16.128 19.8553 14.9534 22.2973 14.6608 24.9167H12V27.5H14.6608C14.9534 30.1193 16.128 32.5613 17.9916 34.425C19.8553 36.2887 22.2973 37.4633 24.9167 37.7558V40.4167H27.5V37.7558C30.1193 37.4633 32.5613 36.2887 34.425 34.425C36.2887 32.5613 37.4633 30.1193 37.7558 27.5H40.4167V24.9167H37.7558ZM26.2083 35.25C21.2096 35.25 17.1667 31.2071 17.1667 26.2083C17.1667 21.2096 21.2096 17.1667 26.2083 17.1667C31.2071 17.1667 35.25 21.2096 35.25 26.2083C35.25 31.2071 31.2071 35.25 26.2083 35.25Z" fill="#A3A5A8"/>
</g>
<defs>
<clipPath id="clip0_224_2876">
<rect width="30" height="30" fill="white" transform="translate(11 10)"/>
</clipPath>
</defs>
</svg>
