<svg width="30" height="30" viewBox="0 0 30 30" fill="none" xmlns="http://www.w3.org/2000/svg">
<path d="M10.5619 23.5663C10.4362 23.5663 10.3086 23.5341 10.1918 23.4663C9.8366 23.2616 9.71462 22.8079 9.92025 22.4527L13.3869 16.448C13.5916 16.0933 14.0449 15.9709 14.4005 16.1765C14.7557 16.3812 14.8777 16.835 14.672 17.1901L11.2054 23.1948C11.068 23.4331 10.8189 23.5663 10.5619 23.5663Z" fill="#4E515B"/>
<path d="M22.2771 9.67837L16.0906 6.10659C15.5663 5.80376 14.9111 6.18229 14.9111 6.78748V7.88897C14.9111 9.29376 14.1619 10.5915 12.9455 11.2939L8.39326 13.9222C7.86891 14.225 7.86891 14.9816 8.39326 15.284L18.1777 20.933C18.702 21.2358 19.3572 20.8573 19.3572 20.2521V14.9956C19.3572 13.5908 20.1063 12.2931 21.3228 11.5907L22.2771 11.0397C22.8014 10.7369 22.8014 9.98026 22.2771 9.6779V9.67837Z" fill="#FF772A"/>
</svg>
