<svg width="29" height="28" viewBox="0 0 29 28" fill="none" xmlns="http://www.w3.org/2000/svg">
<path d="M10 19.4V18.5C10 16.0147 12.0147 14 14.5 14C16.9853 14 19 16.0147 19 18.5V19.4" stroke="#1A1E25" stroke-width="2" stroke-linecap="round"/>
<path d="M14.5 14C15.9913 14 17.2 12.7912 17.2 11.3C17.2 9.80884 15.9913 8.60001 14.5 8.60001C13.0088 8.60001 11.8 9.80884 11.8 11.3C11.8 12.7912 13.0088 14 14.5 14Z" stroke="#1A1E25" stroke-width="2" stroke-linecap="round" stroke-linejoin="round"/>
<path d="M14.5 23C19.4706 23 23.5 18.9706 23.5 14C23.5 9.02944 19.4706 5 14.5 5C9.52944 5 5.5 9.02944 5.5 14C5.5 18.9706 9.52944 23 14.5 23Z" stroke="#1A1E25" stroke-width="2"/>
</svg>
