<svg width="29" height="28" viewBox="0 0 29 28" fill="none" xmlns="http://www.w3.org/2000/svg">
<path fill-rule="evenodd" clip-rule="evenodd" d="M13.3587 6.88448L8.48691 9.78232C7.53994 10.3456 6.96154 11.3535 6.96154 12.4402V18.4576C6.96154 20.1741 8.37931 21.5656 10.1282 21.5656H11.3462V18.4576C11.3462 16.477 12.982 14.8715 15 14.8715C17.018 14.8715 18.6538 16.477 18.6538 18.4576V21.5656H19.8718C21.6207 21.5656 23.0385 20.1741 23.0385 18.4576V12.4402C23.0385 11.3534 22.4601 10.3456 21.5131 9.78233L16.6413 6.88448C15.6325 6.28443 14.3675 6.28443 13.3587 6.88448ZM17.1923 21.5656V18.4576C17.1923 17.2692 16.2108 16.306 15 16.306C13.7892 16.306 12.8077 17.2692 12.8077 18.4576V21.5656H17.1923ZM12.6012 5.65774C14.0756 4.78075 15.9244 4.78075 17.3988 5.65774L22.2706 8.5556C23.6547 9.37886 24.5 10.8519 24.5 12.4402V18.4576C24.5 20.9663 22.4278 23 19.8718 23H10.1282C7.57211 23 5.5 20.9663 5.5 18.4576V12.4402C5.5 10.8519 6.34535 9.37886 7.72939 8.5556L12.6012 5.65774Z" fill="#FF772A"/>
<path d="M21.5131 9.78233C22.4601 10.3456 23.0385 11.3534 23.0385 12.4402V18.4576C23.0385 20.1741 21.6207 21.5656 19.8718 21.5656H18.6538V18.4576C18.6538 16.477 17.018 14.8715 15 14.8715C12.982 14.8715 11.3462 16.477 11.3462 18.4576V21.5656H10.1282C8.37931 21.5656 6.96154 20.1741 6.96154 18.4576V12.4402C6.96154 11.3535 7.53994 10.3456 8.48691 9.78232L13.3587 6.88448C14.3675 6.28443 15.6325 6.28443 16.6413 6.88448L21.5131 9.78233ZM21.5131 9.78233L21.8918 9.16896M17.1923 18.4576V21.5656H12.8077V18.4576C12.8077 17.2692 13.7892 16.306 15 16.306C16.2108 16.306 17.1923 17.2692 17.1923 18.4576ZM17.3988 5.65774C15.9244 4.78075 14.0756 4.78075 12.6012 5.65774L7.72939 8.5556C6.34535 9.37886 5.5 10.8519 5.5 12.4402V18.4576C5.5 20.9663 7.57211 23 10.1282 23H19.8718C22.4278 23 24.5 20.9663 24.5 18.4576V12.4402C24.5 10.8519 23.6547 9.37886 22.2706 8.5556L17.3988 5.65774Z" stroke="#FF772A" stroke-width="0.5" stroke-linecap="round" stroke-linejoin="round"/>
</svg>
