<svg width="30" height="30" viewBox="0 0 30 30" fill="none" xmlns="http://www.w3.org/2000/svg">
<path d="M23.6658 6.9543H6.33352C5.59718 6.9543 5 7.54468 5 8.27262V25.578C5 26.3633 5.64403 27 6.43841 27H23.5616C24.356 27 25 26.3633 25 25.578V8.27193C25 7.54399 24.4028 6.95361 23.6665 6.95361L23.6658 6.9543Z" fill="#FFEAE1"/>
<path d="M11.3334 19.6383C11.3334 19.8201 11.1844 19.9681 10.9998 19.9681H9.66632C9.48241 19.9681 9.33276 19.8208 9.33276 19.6383V18.32C9.33276 18.1382 9.48171 17.9903 9.66632 17.9903H10.9998C11.1837 17.9903 11.3334 18.1375 11.3334 18.32V19.6383ZM11.3334 15.0253C11.3334 15.2071 11.1844 15.355 10.9998 15.355H9.66632C9.48241 15.355 9.33276 15.2078 9.33276 15.0253V13.7069C9.33276 13.5251 9.48171 13.3772 9.66632 13.3772H10.9998C11.1837 13.3772 11.3334 13.5244 11.3334 13.7069V15.0253ZM15.9997 19.6383C15.9997 19.8201 15.8507 19.9681 15.6661 19.9681H14.3326C14.1487 19.9681 13.999 19.8208 13.999 19.6383V18.32C13.999 18.1382 14.148 17.9903 14.3326 17.9903H15.6661C15.85 17.9903 15.9997 18.1375 15.9997 18.32V19.6383ZM15.9997 15.0253C15.9997 15.2071 15.8507 15.355 15.6661 15.355H14.3326C14.1487 15.355 13.999 15.2078 13.999 15.0253V13.7069C13.999 13.5251 14.148 13.3772 14.3326 13.3772H15.6661C15.85 13.3772 15.9997 13.5244 15.9997 13.7069V15.0253ZM20.6659 19.6383C20.6659 19.8201 20.517 19.9681 20.3324 19.9681H18.9989C18.8149 19.9681 18.6653 19.8208 18.6653 19.6383V18.32C18.6653 18.1382 18.8143 17.9903 18.9989 17.9903H20.3324C20.5163 17.9903 20.6659 18.1375 20.6659 18.32V19.6383ZM20.6659 15.0253C20.6659 15.2071 20.517 15.355 20.3324 15.355H18.9989C18.8149 15.355 18.6653 15.2078 18.6653 15.0253V13.7069C18.6653 13.5251 18.8143 13.3772 18.9989 13.3772H20.3324C20.5163 13.3772 20.6659 13.5244 20.6659 13.7069V15.0253Z" fill="#FF772A"/>
<path d="M14.0653 23.4453H15.9337C16.4106 23.4453 16.7973 23.8276 16.7973 24.2991V27H13.2017V24.2991C13.2017 23.8276 13.5884 23.4453 14.0653 23.4453Z" fill="#FFB299"/>
<path d="M17.8298 3H12.1699C11.5238 3 11 3.51781 11 4.15655V9.75197C11 10.3907 11.5238 10.9085 12.1699 10.9085H17.8298C18.4759 10.9085 18.9997 10.3907 18.9997 9.75197V4.15655C18.9997 3.51781 18.4759 3 17.8298 3Z" fill="#EF4452"/>
<path d="M16.9996 6.18556H15.7773V4.82646C15.7773 4.64464 15.6284 4.4967 15.4438 4.4967H14.555C14.3711 4.4967 14.2214 4.64395 14.2214 4.82646V6.18556H12.9991C12.8152 6.18556 12.6655 6.33281 12.6655 6.51531V7.39396C12.6655 7.57577 12.8145 7.72371 12.9991 7.72371H14.2214V9.08281C14.2214 9.26463 14.3704 9.41257 14.555 9.41257H15.4438C15.6277 9.41257 15.7773 9.26532 15.7773 9.08281V7.72371H16.9996C17.1836 7.72371 17.3332 7.57646 17.3332 7.39396V6.51531C17.3332 6.3335 17.1843 6.18556 16.9996 6.18556Z" fill="white"/>
</svg>
