<svg width="283" height="329" viewBox="0 0 283 329" fill="none" xmlns="http://www.w3.org/2000/svg">
<circle cx="220" cy="83" r="77" stroke="#FF772A" stroke-opacity="0.05" stroke-width="12"/>
<circle cx="81" cy="224" r="53" stroke="#FF772A" stroke-opacity="0.05" stroke-width="8"/>
<rect x="11.4871" y="158.657" width="14.3582" height="34.4597" rx="2.81633" transform="rotate(-27.973 11.4871 158.657)" fill="url(#paint0_linear_296_2849)"/>
<rect x="158.284" y="158.782" width="26.5337" height="34.8851" rx="2.81633" transform="rotate(-7.7197 158.284 158.782)" fill="url(#paint1_linear_296_2849)"/>
<path d="M1.02707 199.5L16.5682 173.903C17.241 172.795 18.5833 172.289 19.82 172.678L52.2118 182.858C53.3854 183.227 54.1837 184.315 54.1837 185.545V203.905C54.1837 204.818 53.7416 205.674 52.9973 206.202L24.04 226.752C22.827 227.613 21.1537 227.382 20.2191 226.225L1.2435 202.731C0.497393 201.808 0.410823 200.515 1.02707 199.5Z" fill="url(#paint2_linear_296_2849)"/>
<circle cx="164.205" cy="139.043" r="37.5118" fill="url(#paint3_linear_296_2849)"/>
<path fill-rule="evenodd" clip-rule="evenodd" d="M56.81 194.208L16.7971 226.615C46.521 309.409 114.924 298.049 145.41 282.02L145.41 326H213.051C226.706 330.878 238.964 330.944 254.969 309.2C268.28 291.116 235.948 234.181 209.159 194.678L147.474 196.969L89.2013 226.615L56.81 194.208Z" fill="url(#paint4_linear_296_2849)"/>
<path d="M193.997 173.3L147.474 196.969L209.159 194.678C203.736 186.683 198.541 179.401 193.997 173.3Z" fill="url(#paint5_linear_296_2849)"/>
<ellipse cx="142.588" cy="131.908" rx="2.08399" ry="4.16798" transform="rotate(13.0666 142.588 131.908)" fill="black"/>
<ellipse cx="154.183" cy="133.828" rx="2.08399" ry="4.16798" transform="rotate(13.0666 154.183 133.828)" fill="black"/>
<path d="M205.941 183.989L145.064 197.732H215.306L205.941 183.989Z" fill="#E1E1E1"/>
<path fill-rule="evenodd" clip-rule="evenodd" d="M92.8874 122.109C92.8476 121.917 92.9012 121.718 93.0301 121.57C97.8982 115.995 100.847 108.701 100.847 100.718C100.847 83.2006 86.6467 69 69.1294 69C51.612 69 37.4114 83.2006 37.4114 100.718C37.4114 118.235 51.612 132.436 69.1294 132.436C75.5318 132.436 81.4912 130.539 86.4762 127.276C86.6349 127.173 86.832 127.145 87.0123 127.204L93.4322 129.292C93.8842 129.439 94.3264 129.043 94.2298 128.578L92.8874 122.109Z" fill="#FF772A"/>
<path d="M65.1505 104.668C65.1505 103.618 65.4509 102.632 66.0515 101.711C66.6783 100.763 67.3574 100.008 68.0887 99.4444C68.8199 98.8555 69.4859 98.2154 70.0866 97.524C70.7134 96.807 71.0268 96.1285 71.0268 95.4883C71.0268 94.2593 70.2564 93.6447 68.7155 93.6447C67.1223 93.6447 65.8687 94.6561 64.9546 96.679L59 93.3374C59.8619 91.2634 61.1808 89.6886 62.9567 88.6132C64.7588 87.5377 66.7698 87 68.9897 87C71.4969 87 73.6254 87.6914 75.3753 89.0741C77.1251 90.4312 78 92.2876 78 94.6433C78 95.7188 77.778 96.7174 77.334 97.6392C76.9162 98.5354 76.4069 99.2908 75.8062 99.9053C75.2055 100.52 74.6048 101.096 74.0041 101.634C73.4034 102.146 72.8811 102.658 72.4371 103.17C72.0192 103.682 71.8103 104.182 71.8103 104.668H65.1505ZM71.3402 113.848C70.5567 114.616 69.6034 115 68.4804 115C67.3574 115 66.3911 114.616 65.5814 113.848C64.7979 113.08 64.4062 112.132 64.4062 111.005C64.4062 109.904 64.7979 108.97 65.5814 108.202C66.3911 107.408 67.3574 107.011 68.4804 107.011C69.6034 107.011 70.5567 107.408 71.3402 108.202C72.1498 108.97 72.5546 109.904 72.5546 111.005C72.5546 112.132 72.1498 113.08 71.3402 113.848Z" fill="white"/>
<defs>
<linearGradient id="paint0_linear_296_2849" x1="17.1483" y1="188.618" x2="18.1649" y2="193.228" gradientUnits="userSpaceOnUse">
<stop stop-color="#A8A8A8"/>
<stop offset="1" stop-color="white"/>
</linearGradient>
<linearGradient id="paint1_linear_296_2849" x1="175.127" y1="178.506" x2="173.095" y2="193.871" gradientUnits="userSpaceOnUse">
<stop stop-color="#A8A8A8"/>
<stop offset="1" stop-color="white"/>
</linearGradient>
<linearGradient id="paint2_linear_296_2849" x1="27.4859" y1="176.354" x2="36.5504" y2="226.577" gradientUnits="userSpaceOnUse">
<stop stop-color="#A8A8A8"/>
<stop offset="1" stop-color="white"/>
</linearGradient>
<linearGradient id="paint3_linear_296_2849" x1="145.359" y1="125.941" x2="164.205" y2="176.555" gradientUnits="userSpaceOnUse">
<stop stop-color="white"/>
<stop offset="1" stop-color="#F0EEEE"/>
</linearGradient>
<linearGradient id="paint4_linear_296_2849" x1="137.43" y1="190.097" x2="137.43" y2="326" gradientUnits="userSpaceOnUse">
<stop stop-color="white"/>
<stop offset="1" stop-color="#DCDCDC"/>
</linearGradient>
<linearGradient id="paint5_linear_296_2849" x1="137.43" y1="190.389" x2="137.43" y2="328.648" gradientUnits="userSpaceOnUse">
<stop stop-color="#FF772A"/>
<stop offset="1" stop-color="#DCDCDC"/>
</linearGradient>
</defs>
</svg>
