<svg width="20" height="19" viewBox="0 0 20 19" fill="none" xmlns="http://www.w3.org/2000/svg">
<path d="M1.50196 18.1797C1.80053 18.1797 2.07196 18.083 2.43387 17.8809L6.83101 15.5781L11.6262 18.1885C12.0062 18.3906 12.4043 18.4873 12.7934 18.4873C13.1734 18.4873 13.5443 18.3994 13.8791 18.2061L18.3758 15.7451C19.0001 15.4023 19.2715 14.9189 19.2715 14.251V2.44727C19.2715 1.7002 18.8101 1.25195 18.0501 1.25195C17.7515 1.25195 17.4801 1.36621 17.1091 1.55957L12.5491 4.02051L7.80815 1.24316C7.46434 1.0498 7.09339 0.953125 6.71339 0.953125C6.34244 0.953125 5.97148 1.04102 5.64577 1.22559L1.17625 3.69531C0.551961 4.03809 0.271484 4.50391 0.271484 5.17188V16.9932C0.271484 17.7402 0.732913 18.1797 1.50196 18.1797ZM6.01672 14.0049L2.29815 15.9912C2.23482 16.0176 2.18053 16.0439 2.13529 16.0439C2.02672 16.0439 1.97244 15.9648 1.97244 15.8418V5.62891C1.97244 5.38281 2.06291 5.22461 2.29815 5.09277L5.71815 3.16797C5.81767 3.10645 5.90815 3.0625 6.01672 3.00977V14.0049ZM7.73577 14.0488V3.2207C7.82625 3.26465 7.92577 3.31738 8.01625 3.37012L11.8072 5.59375V16.2637C11.6896 16.2021 11.572 16.1406 11.4453 16.0703L7.73577 14.0488ZM13.5353 16.3867V5.42676L17.2539 3.45801C17.2991 3.43164 17.3534 3.41406 17.3986 3.41406C17.5072 3.41406 17.5796 3.49316 17.5796 3.60742V13.7676C17.5796 14.0225 17.4891 14.1807 17.2448 14.3125L13.9515 16.167C13.8158 16.2461 13.671 16.3252 13.5353 16.3867Z" fill="#FF772A"/>
</svg>
