<svg width="29" height="28" viewBox="0 0 29 28" fill="none" xmlns="http://www.w3.org/2000/svg">
<path d="M6.50196 22.1797C6.80053 22.1797 7.07196 22.083 7.43387 21.8809L11.831 19.5781L16.6262 22.1885C17.0062 22.3906 17.4043 22.4873 17.7934 22.4873C18.1734 22.4873 18.5443 22.3994 18.8791 22.2061L23.3758 19.7451C24.0001 19.4023 24.2715 18.9189 24.2715 18.251V6.44727C24.2715 5.7002 23.8101 5.25195 23.0501 5.25195C22.7515 5.25195 22.4801 5.36621 22.1091 5.55957L17.5491 8.02051L12.8082 5.24316C12.4643 5.0498 12.0934 4.95312 11.7134 4.95312C11.3424 4.95312 10.9715 5.04102 10.6458 5.22559L6.17625 7.69531C5.55196 8.03809 5.27148 8.50391 5.27148 9.17188V20.9932C5.27148 21.7402 5.73291 22.1797 6.50196 22.1797ZM11.0167 18.0049L7.29815 19.9912C7.23482 20.0176 7.18053 20.0439 7.13529 20.0439C7.02672 20.0439 6.97244 19.9648 6.97244 19.8418V9.62891C6.97244 9.38281 7.06291 9.22461 7.29815 9.09277L10.7182 7.16797C10.8177 7.10645 10.9082 7.0625 11.0167 7.00977V18.0049ZM12.7358 18.0488V7.2207C12.8262 7.26465 12.9258 7.31738 13.0162 7.37012L16.8072 9.59375V20.2637C16.6896 20.2021 16.572 20.1406 16.4453 20.0703L12.7358 18.0488ZM18.5353 20.3867V9.42676L22.2539 7.45801C22.2991 7.43164 22.3534 7.41406 22.3986 7.41406C22.5072 7.41406 22.5796 7.49316 22.5796 7.60742V17.7676C22.5796 18.0225 22.4891 18.1807 22.2448 18.3125L18.9515 20.167C18.8158 20.2461 18.671 20.3252 18.5353 20.3867Z" fill="#FF772A"/>
</svg>
