<svg width="30" height="30" viewBox="0 0 30 30" fill="none" xmlns="http://www.w3.org/2000/svg">
<path d="M5.875 22C5.62708 22 5.41927 21.9157 5.25156 21.747C5.08385 21.5783 5 21.3693 5 21.1199C5 20.8705 5.08385 20.6632 5.25156 20.4979C5.41927 20.3326 5.62708 20.25 5.875 20.25H25.125C25.3729 20.25 25.5807 20.3343 25.7484 20.503C25.9161 20.6717 26 20.8807 26 21.1301C26 21.3795 25.9161 21.5868 25.7484 21.7521C25.5807 21.9174 25.3729 22 25.125 22H5.875ZM5.875 15.875C5.62708 15.875 5.41927 15.7907 5.25156 15.622C5.08385 15.4533 5 15.2443 5 14.9949C5 14.7455 5.08385 14.5382 5.25156 14.3729C5.41927 14.2076 5.62708 14.125 5.875 14.125H25.125C25.3729 14.125 25.5807 14.2093 25.7484 14.378C25.9161 14.5467 26 14.7557 26 15.0051C26 15.2545 25.9161 15.4618 25.7484 15.6271C25.5807 15.7924 25.3729 15.875 25.125 15.875H5.875ZM5.875 9.75C5.62708 9.75 5.41927 9.66566 5.25156 9.49698C5.08385 9.32828 5 9.11925 5 8.8699C5 8.62052 5.08385 8.41319 5.25156 8.24792C5.41927 8.08264 5.62708 8 5.875 8H25.125C25.3729 8 25.5807 8.08434 25.7484 8.25302C25.9161 8.42172 26 8.63075 26 8.8801C26 9.12948 25.9161 9.33681 25.7484 9.50208C25.5807 9.66736 25.3729 9.75 25.125 9.75H5.875Z" fill="#FF772A"/>
</svg>
