<svg width="77" height="77" viewBox="0 0 77 77" fill="none" xmlns="http://www.w3.org/2000/svg">
<g clip-path="url(#clip0_291_5092)">
<path d="M40.2176 39.6516L29.992 29.4261L26.5222 32.8959L40.2176 46.5912L69.6435 17.1652L66.1737 13.6954L40.2176 39.6516Z" fill="#FF772A"/>
</g>
<path d="M68.8483 42.0055L62.55 40.2997C61.4977 46.8346 57.6711 52.857 51.5033 56.4179C40.6183 62.7024 26.6641 58.9231 20.3457 47.9793C14.0273 37.0355 17.7314 23.0612 28.6165 16.7767C34.7842 13.2158 41.9131 12.9131 48.0986 15.2691L49.7705 8.96174C41.9685 6.17982 33.0636 6.65847 25.3469 11.1137C11.3498 19.1949 6.58823 37.1587 14.7131 51.2313C22.8379 65.304 40.7758 70.1622 54.7729 62.081C62.4896 57.6257 67.3565 50.1532 68.8483 42.0055Z" fill="#FF772A"/>
<defs>
<clipPath id="clip0_291_5092">
<rect width="58.8519" height="58.8519" fill="white" transform="translate(18.1482)"/>
</clipPath>
</defs>
</svg>
