<svg width="20" height="20" viewBox="0 0 20 20" fill="none" xmlns="http://www.w3.org/2000/svg">
<path d="M16.9069 4.44006L9.25191 12.0951C9.47891 12.4201 9.67191 12.7711 9.82691 13.1431L11.7369 17.7421L16.9069 4.43906V4.44006ZM7.90491 10.7481L15.5609 3.09206L2.25791 8.26206L6.85691 10.1731C7.22606 10.3262 7.57746 10.519 7.90491 10.7481ZM19.5229 2.88606L13.4959 18.3921C13.1159 19.3721 12.0189 19.8751 11.0469 19.5161C10.8101 19.4286 10.594 19.293 10.4121 19.118C10.2302 18.943 10.0865 18.7323 9.98991 18.4991L8.07991 13.9001C7.70826 13.0038 6.99614 12.2917 6.09991 11.9201L1.49991 10.0101C0.545906 9.61306 0.109906 8.51006 0.527906 7.54406C0.630399 7.30802 0.778597 7.0946 0.963956 6.91611C1.14932 6.73761 1.36817 6.59757 1.60791 6.50406L17.1139 0.475057C17.4508 0.33928 17.8203 0.305585 18.1762 0.378166C18.5321 0.450747 18.8588 0.626398 19.1157 0.883259C19.3726 1.14012 19.5482 1.46685 19.6208 1.82278C19.6934 2.17871 19.6597 2.54813 19.5239 2.88506L19.5229 2.88606Z" fill="#FF772A"/>
</svg>
