<svg width="20" height="20" viewBox="0 0 20 20" fill="none" xmlns="http://www.w3.org/2000/svg">
<path fill-rule="evenodd" clip-rule="evenodd" d="M8.3587 2.88448L3.48691 5.78232C2.53994 6.34561 1.96154 7.35345 1.96154 8.44025V14.4576C1.96154 16.1741 3.37931 17.5656 5.1282 17.5656H6.34615V14.4576C6.34615 12.477 7.98199 10.8715 10 10.8715C12.018 10.8715 13.6538 12.477 13.6538 14.4576V17.5656H14.8718C16.6207 17.5656 18.0385 16.1741 18.0385 14.4576V8.44025C18.0385 7.35345 17.4601 6.34561 16.5131 5.78233L11.6413 2.88448C10.6325 2.28443 9.36754 2.28443 8.3587 2.88448ZM12.1923 17.5656V14.4576C12.1923 13.2692 11.2108 12.306 10 12.306C8.78918 12.306 7.80769 13.2692 7.80769 14.4576V17.5656H12.1923ZM7.6012 1.65774C9.07563 0.780753 10.9244 0.780752 12.3988 1.65774L17.2706 4.5556C18.6547 5.37886 19.5 6.85187 19.5 8.44025V14.4576C19.5 16.9663 17.4278 19 14.8718 19H5.1282C2.57211 19 0.5 16.9663 0.5 14.4576V8.44025C0.5 6.85186 1.34535 5.37886 2.72939 4.5556L7.6012 1.65774Z" fill="#FF772A"/>
<path d="M16.5131 5.78233C17.4601 6.34561 18.0385 7.35345 18.0385 8.44025V14.4576C18.0385 16.1741 16.6207 17.5656 14.8718 17.5656H13.6538V14.4576C13.6538 12.477 12.018 10.8715 10 10.8715C7.98199 10.8715 6.34615 12.477 6.34615 14.4576V17.5656H5.1282C3.37931 17.5656 1.96154 16.1741 1.96154 14.4576V8.44025C1.96154 7.35345 2.53994 6.34561 3.48691 5.78232L8.3587 2.88448C9.36754 2.28443 10.6325 2.28443 11.6413 2.88448L16.5131 5.78233ZM16.5131 5.78233L16.8918 5.16896M12.1923 14.4576V17.5656H7.80769V14.4576C7.80769 13.2692 8.78918 12.306 10 12.306C11.2108 12.306 12.1923 13.2692 12.1923 14.4576ZM12.3988 1.65774C10.9244 0.780752 9.07563 0.780753 7.6012 1.65774L2.72939 4.5556C1.34535 5.37886 0.5 6.85186 0.5 8.44025V14.4576C0.5 16.9663 2.57211 19 5.1282 19H14.8718C17.4278 19 19.5 16.9663 19.5 14.4576V8.44025C19.5 6.85187 18.6547 5.37886 17.2706 4.5556L12.3988 1.65774Z" stroke="#FF772A" stroke-width="0.5" stroke-linecap="round" stroke-linejoin="round"/>
</svg>
